<svg width="15" height="15" viewBox="0 0 15 15" fill="none" xmlns="http://www.w3.org/2000/svg">
<path fill-rule="evenodd" clip-rule="evenodd" d="M3.73829 0.75C3.29631 0.75 2.87949 0.934755 2.53698 1.26215L2.52737 1.27164L1.49285 2.3108C1.06371 2.73826 0.817077 3.26324 0.763433 3.86747L0.763311 3.86895C0.685803 4.80791 0.963363 5.67283 1.16688 6.21935C1.67078 7.57277 2.42282 8.8232 3.53498 10.1545C4.88863 11.7639 6.51863 13.0361 8.38118 13.9326L8.38286 13.9334C9.08818 14.2662 10.0564 14.6738 11.1474 14.7435L11.1514 14.7437C11.2145 14.7467 11.287 14.75 11.3545 14.75C12.1218 14.75 12.7772 14.4725 13.287 13.9214L13.3101 13.8964L13.3134 13.8899L13.3149 13.888C13.4506 13.7255 13.6061 13.5757 13.7816 13.4067L13.8212 13.3686C13.953 13.2435 14.0893 13.1108 14.2234 12.9712C14.5607 12.6217 14.75 12.2007 14.75 11.7567C14.75 11.3085 14.556 10.8885 14.21 10.5472L12.5429 8.88112C12.2095 8.53627 11.7939 8.33947 11.3423 8.33947C10.894 8.33947 10.4762 8.53297 10.1314 8.87626L9.29576 9.70566L9.29207 9.70378L9.2181 9.66579L9.21467 9.66408C9.10308 9.60853 9.01066 9.5623 8.93393 9.51497C8.05958 8.96185 7.26095 8.2389 6.49063 7.29673C6.16903 6.89185 5.94344 6.54828 5.77505 6.21282C5.95644 6.04165 6.12835 5.86794 6.29312 5.70144L6.35806 5.63584C6.4012 5.59288 6.44457 5.54893 6.48671 5.50622C6.52942 5.46293 6.57126 5.42054 6.61296 5.37902C6.96986 5.02365 7.16271 4.6 7.16271 4.1612C7.16271 3.7224 6.96986 3.29876 6.61296 2.94339L5.7826 2.1166C5.68781 2.02222 5.59329 1.92804 5.50516 1.83444L5.5025 1.8317C5.32033 1.64427 5.12584 1.44743 4.92396 1.2617C4.59028 0.93422 4.17957 0.75 3.73829 0.75ZM2.41554 3.22574L3.44988 2.19585C3.57014 2.08427 3.6712 2.04838 3.74437 2.04838C3.83912 2.04838 3.93544 2.10802 4.01776 2.18998L4.02679 2.19917L4.03277 2.20473C4.21365 2.37302 4.38661 2.54813 4.57169 2.73846C4.61962 2.78772 4.66821 2.83687 4.71638 2.88559L4.71724 2.88645C4.76535 2.93511 4.81306 2.98341 4.8607 3.03233L5.69369 3.86173C5.83196 3.9994 5.8648 4.09623 5.8648 4.1612C5.8648 4.22617 5.83196 4.323 5.69369 4.46068C5.66198 4.49225 5.63177 4.52269 5.60227 4.5524C5.54579 4.60931 5.49183 4.66352 5.43506 4.7181L5.43011 4.72314C5.17555 4.98264 4.93648 5.22005 4.67798 5.45082L4.67435 5.45443L4.67352 5.45513C4.66814 5.45971 4.65547 5.47055 4.64121 5.48761C4.48244 5.65045 4.40644 5.82403 4.38666 5.99421C4.36713 6.16222 4.40485 6.30755 4.43577 6.40504L4.44877 6.44386L4.45198 6.45161C4.67885 6.99884 4.99645 7.50859 5.46791 8.10464L5.47675 8.11582L5.48109 8.12015C6.33222 9.16235 7.23393 9.98036 8.23251 10.6091C8.36754 10.6944 8.50441 10.7625 8.62361 10.8219L8.6277 10.8239C8.73979 10.8797 8.83254 10.9261 8.90947 10.9736L8.9189 10.9795L8.9246 10.9823L8.92708 10.9838L8.94091 10.9923C8.94691 10.9958 8.95533 11.0006 8.96532 11.0056C9.09769 11.0715 9.23175 11.1067 9.37438 11.1067C9.72713 11.1067 9.94567 10.8888 10.0051 10.8296L11.0476 9.79157C11.1402 9.69935 11.2448 9.63483 11.3362 9.63483C11.4243 9.63483 11.5191 9.6941 11.5957 9.77767L13.2855 11.4603L13.2864 11.4611C13.4151 11.5881 13.45 11.6872 13.4502 11.7603C13.4504 11.8322 13.4172 11.9308 13.2979 12.0584C13.2872 12.0678 13.2764 12.0789 13.2663 12.0918C13.1787 12.1848 13.0894 12.2713 12.9908 12.3667L12.9206 12.4348C12.7231 12.6224 12.5167 12.8245 12.3211 13.0533C12.0624 13.3269 11.7661 13.4546 11.3575 13.4546C11.3103 13.4546 11.2692 13.4545 11.233 13.4521C10.3783 13.3977 9.5739 13.0639 8.94972 12.7667C7.25996 11.9521 5.77567 10.7956 4.54116 9.32845C3.51781 8.10027 2.83982 6.97209 2.3919 5.76703C2.11671 5.03341 2.02396 4.48273 2.06565 3.97531C2.09131 3.67746 2.20355 3.43681 2.41554 3.22574Z" fill="#015A43"/>
</svg>
